<?xml version="1.0" encoding="utf-8"?>
<!-- Generator: Adobe Illustrator 15.0.2, SVG Export Plug-In . SVG Version: 6.00 Build 0)  -->
<!DOCTYPE svg PUBLIC "-//W3C//DTD SVG 1.1//EN" "http://www.w3.org/Graphics/SVG/1.1/DTD/svg11.dtd">
<svg version="1.1" id="Calque_1" xmlns="http://www.w3.org/2000/svg" xmlns:xlink="http://www.w3.org/1999/xlink" x="0px" y="0px"
	 width="36px" height="288px" viewBox="0 0 36 288" enable-background="new 0 0 36 288" xml:space="preserve">
<g>
	<circle fill="#E91E63" cx="13.028" cy="5.988" r="3"/>
	<circle fill="#4CAF50" cx="22.974" cy="30.012" r="3"/>
	<circle fill="#FFC107" cx="30.013" cy="13.027" r="3"/>
	<circle fill="#2196F3" cx="5.989" cy="22.973" r="3"/>
	<circle fill="#3F51B5" cx="5.991" cy="13.021" r="3"/>
	<circle fill="#CDDC39" cx="30.011" cy="22.977" r="3"/>
	<circle fill="#FF5722" cx="22.978" cy="5.99" r="3.999"/>
	<circle fill="#00BCD4" cx="13.024" cy="30.009" r="3"/>
	<circle fill="#E91E63" cx="13.028" cy="41.988" r="3"/>
	<circle fill="#4CAF50" cx="22.974" cy="66.012" r="3"/>
	<circle fill="#FFC107" cx="30.013" cy="49.026" r="3.999"/>
	<circle fill="#2196F3" cx="5.989" cy="58.973" r="3"/>
	<circle fill="#3F51B5" cx="5.991" cy="49.021" r="3"/>
	<circle fill="#CDDC39" cx="30.011" cy="58.977" r="3"/>
	<circle fill="#FF5722" cx="22.978" cy="41.99" r="2.999"/>
	<circle fill="#00BCD4" cx="13.024" cy="66.009" r="3"/>
	<circle fill="#E91E63" cx="13.028" cy="77.988" r="3"/>
	<circle fill="#4CAF50" cx="22.974" cy="102.012" r="3"/>
	<circle fill="#FFC107" cx="30.013" cy="85.026" r="2.999"/>
	<circle fill="#2196F3" cx="5.989" cy="94.973" r="3"/>
	<circle fill="#3F51B5" cx="5.991" cy="85.021" r="3"/>
	<circle fill="#CDDC39" cx="30.011" cy="94.977" r="4"/>
	<circle fill="#FF5722" cx="22.978" cy="77.99" r="2.999"/>
	<circle fill="#00BCD4" cx="13.024" cy="102.009" r="3"/>
	<circle fill="#E91E63" cx="13.028" cy="113.988" r="3"/>
	<circle fill="#4CAF50" cx="22.974" cy="138.011" r="3.999"/>
	<circle fill="#FFC107" cx="30.013" cy="121.026" r="2.999"/>
	<circle fill="#2196F3" cx="5.989" cy="130.973" r="3"/>
	<circle fill="#3F51B5" cx="5.991" cy="121.021" r="3"/>
	<circle fill="#CDDC39" cx="30.011" cy="130.977" r="3"/>
	<circle fill="#FF5722" cx="22.978" cy="113.99" r="2.999"/>
	<circle fill="#00BCD4" cx="13.024" cy="138.009" r="3"/>
	<circle fill="#E91E63" cx="13.028" cy="149.988" r="3"/>
	<circle fill="#4CAF50" cx="22.974" cy="174.011" r="2.999"/>
	<circle fill="#FFC107" cx="30.013" cy="157.026" r="2.999"/>
	<circle fill="#2196F3" cx="5.989" cy="166.973" r="3"/>
	<circle fill="#3F51B5" cx="5.991" cy="157.021" r="3"/>
	<circle fill="#CDDC39" cx="30.011" cy="166.977" r="3"/>
	<circle fill="#FF5722" cx="22.978" cy="149.99" r="2.999"/>
	<circle fill="#00BCD4" cx="13.024" cy="174.01" r="4"/>
	<circle fill="#E91E63" cx="13.028" cy="185.988" r="3"/>
	<circle fill="#4CAF50" cx="22.974" cy="210.011" r="2.999"/>
	<circle fill="#FFC107" cx="30.013" cy="193.026" r="2.999"/>
	<circle fill="#2196F3" cx="5.989" cy="202.972" r="3.999"/>
	<circle fill="#3F51B5" cx="5.991" cy="193.021" r="3"/>
	<circle fill="#CDDC39" cx="30.011" cy="202.977" r="3"/>
	<circle fill="#FF5722" cx="22.978" cy="185.989" r="2.999"/>
	<circle fill="#00BCD4" cx="13.024" cy="210.01" r="3"/>
	<circle fill="#E91E63" cx="13.028" cy="221.988" r="3"/>
	<circle fill="#4CAF50" cx="22.974" cy="246.011" r="2.999"/>
	<circle fill="#FFC107" cx="30.013" cy="229.026" r="2.999"/>
	<circle fill="#2196F3" cx="5.989" cy="238.972" r="2.999"/>
	<circle fill="#3F51B5" cx="5.991" cy="229.022" r="3.999"/>
	<circle fill="#CDDC39" cx="30.011" cy="238.977" r="3"/>
	<circle fill="#FF5722" cx="22.978" cy="221.989" r="2.999"/>
	<circle fill="#00BCD4" cx="13.024" cy="246.01" r="3"/>
	<circle fill="#E91E63" cx="13.028" cy="257.989" r="3.999"/>
	<circle fill="#4CAF50" cx="22.974" cy="282.011" r="2.999"/>
	<circle fill="#FFC107" cx="30.013" cy="265.026" r="2.999"/>
	<circle fill="#2196F3" cx="5.989" cy="274.972" r="2.999"/>
	<circle fill="#3F51B5" cx="5.991" cy="265.022" r="2.999"/>
	<circle fill="#CDDC39" cx="30.011" cy="274.977" r="3"/>
	<circle fill="#FF5722" cx="22.978" cy="257.989" r="2.999"/>
	<circle fill="#00BCD4" cx="13.024" cy="282.01" r="3"/>
	<rect fill="#E91E63" fill-opacity="0" width="36" height="288"/>
</g>
</svg>
